<svg xmlns="http://www.w3.org/2000/svg" version="1.1" xmlns:xlink="http://www.w3.org/1999/xlink" xmlns:svgjs="http://svgjs.dev/svgjs" viewBox="0 0 800 400"><path d="M252.46636962890625,120.17937469482422C260.0896860758464,111.80867131551106,289.98504130045575,63.52765019734701,298.2062683105469,69.95515441894531C306.427495320638,76.38265864054362,288.938720703125,154.70852533976236,301.7937316894531,158.74440002441406C314.64874267578125,162.78027470906576,374.8879038492839,79.67115020751953,375.3363342285156,94.17040252685547C375.7847646077474,108.6696548461914,302.2421620686849,232.5859514872233,304.48431396484375,245.7399139404297C306.7264658610026,258.89387639363605,381.0164540608724,165.76981353759766,388.78924560546875,173.09417724609375C396.5620371500651,180.41854095458984,351.8684488932292,258.4454396565755,351.1210632324219,289.68609619140625C350.37367757161456,320.926752726237,370.10462951660156,368.60986582438153,384.304931640625,360.5381164550781C398.50523376464844,352.4663670857747,426.4574025472005,250.52316284179688,436.3228759765625,241.25559997558594C446.1883494059245,231.988037109375,442.3019561767578,294.3198827107747,443.4977722167969,304.9327392578125" fill="none" stroke-width="8" stroke="#ffda05" stroke-linecap="butt" transform="matrix(-0.20051692299250087,-1.1371879798930558,1.1371879798930558,-0.20051692299250087,224.8191734579541,638.9135777607861)"></path><defs><linearGradient id="SvgjsLinearGradient1000"><stop stop-color="hsl(37, 99%, 67%)" offset="0"></stop><stop stop-color="hsl(316, 73%, 52%)" offset="1"></stop></linearGradient></defs></svg>